<?xml version="1.0" standalone="no"?><!DOCTYPE svg PUBLIC "-//W3C//DTD SVG 1.1//EN" "http://www.w3.org/Graphics/SVG/1.1/DTD/svg11.dtd"><svg t="1579446632315" class="icon" viewBox="0 0 1024 1024" version="1.1" xmlns="http://www.w3.org/2000/svg" p-id="5692" xmlns:xlink="http://www.w3.org/1999/xlink" width="48" height="48"><defs><style type="text/css"></style></defs><path d="M885.7 787.4H135.3c-35.4 0-64.3-29-64.3-64.3V391.9c0-35.4 29-64.3 64.3-64.3h750.4c35.4 0 64.3 29 64.3 64.3v331.2c0 35.4-28.9 64.3-64.3 64.3z" fill="#CBE4FE" p-id="5693"></path><path d="M871.8 744.5H149.6c-35.4 0-64.3-29-64.3-64.3V349c0-35.4 29-64.3 64.3-64.3h722.2c35.4 0 64.3 29 64.3 64.3v331.2c0.1 35.4-28.9 64.3-64.3 64.3z" fill="#FFFFFF" p-id="5694"></path><path d="M871.8 758.1H149.6c-43.1 0-77.9-35-77.9-77.9V349c0-43.1 35-77.9 77.9-77.9h722.2c43.1 0 77.9 35 77.9 77.9v331.2c0.2 43-34.8 77.9-77.9 77.9zM149.6 298.3c-27.9 0-50.7 22.8-50.7 50.7v331.2c0 27.9 22.8 50.7 50.7 50.7h722.2c27.9 0 50.7-22.8 50.7-50.7V349c0-27.9-22.8-50.7-50.7-50.7H149.6z" fill="#1B81FC" p-id="5695"></path><path d="M209 420.3h-34.1c-10.2 0-18.5-8.3-18.5-18.5v-34.1c0-10.2 8.3-18.5 18.5-18.5H209c10.2 0 18.5 8.3 18.5 18.5v34.1c0 10.2-8.3 18.5-18.5 18.5z" fill="#CBE4FE" p-id="5696"></path><path d="M209 434h-34.1c-17.7 0-32.2-14.4-32.2-32.2v-34.1c0-17.7 14.4-32.2 32.2-32.2H209c17.7 0 32.2 14.4 32.2 32.2v34.1c0 17.7-14.5 32.2-32.2 32.2z m-34.1-71.1c-2.7 0-4.9 2.3-4.9 4.9v34.1c0 2.7 2.3 4.9 4.9 4.9H209c2.7 0 4.9-2.3 4.9-4.9v-34.1c0-2.7-2.3-4.9-4.9-4.9h-34.1z" fill="#1B81FC" p-id="5697"></path><path d="M336.4 420.3h-34.1c-10.2 0-18.5-8.3-18.5-18.5v-34.1c0-10.2 8.3-18.5 18.5-18.5h34.1c10.2 0 18.5 8.3 18.5 18.5v34.1c0 10.2-8.3 18.5-18.5 18.5z" fill="#CBE4FE" p-id="5698"></path><path d="M336.4 434h-34.1c-17.7 0-32.2-14.4-32.2-32.2v-34.1c0-17.7 14.4-32.2 32.2-32.2h34.1c17.7 0 32.2 14.4 32.2 32.2v34.1c-0.1 17.7-14.5 32.2-32.2 32.2z m-34.1-71.1c-2.7 0-4.9 2.3-4.9 4.9v34.1c0 2.7 2.3 4.9 4.9 4.9h34.1c2.7 0 4.9-2.3 4.9-4.9v-34.1c0-2.7-2.3-4.9-4.9-4.9h-34.1z" fill="#1B81FC" p-id="5699"></path><path d="M463.6 420.3h-34.1c-10.2 0-18.5-8.3-18.5-18.5v-34.1c0-10.2 8.3-18.5 18.5-18.5h34.1c10.2 0 18.5 8.3 18.5 18.5v34.1c0.2 10.2-8.2 18.5-18.5 18.5z" fill="#CBE4FE" p-id="5700"></path><path d="M463.6 434h-34.1c-17.7 0-32.2-14.4-32.2-32.2v-34.1c0-17.7 14.4-32.2 32.2-32.2h34.1c17.7 0 32.2 14.4 32.2 32.2v34.1c0.1 17.7-14.3 32.2-32.2 32.2z m-33.9-71.1c-2.7 0-4.9 2.3-4.9 4.9v34.1c0 2.7 2.3 4.9 4.9 4.9h34.1c2.7 0 4.9-2.3 4.9-4.9v-34.1c0-2.7-2.3-4.9-4.9-4.9h-34.1z" fill="#1B81FC" p-id="5701"></path><path d="M591 420.3h-34c-10.2 0-18.5-8.3-18.5-18.5v-34.1c0-10.2 8.3-18.5 18.5-18.5h34c10.2 0 18.5 8.3 18.5 18.5v34.1c0.2 10.2-8.3 18.5-18.5 18.5z" fill="#CBE4FE" p-id="5702"></path><path d="M591 434h-34c-17.7 0-32.2-14.4-32.2-32.2v-34.1c0-17.7 14.4-32.2 32.2-32.2h34c17.7 0 32.2 14.4 32.2 32.2v34.1c0.1 17.7-14.3 32.2-32.2 32.2z m-34-71.1c-2.7 0-4.9 2.3-4.9 4.9v34.1c0 2.7 2.3 4.9 4.9 4.9h34c2.7 0 4.9-2.3 4.9-4.9v-34.1c0-2.7-2.3-4.9-4.9-4.9h-34z" fill="#1B81FC" p-id="5703"></path><path d="M718.4 420.3h-34.1c-10.2 0-18.5-8.3-18.5-18.5v-34.1c0-10.2 8.3-18.5 18.5-18.5h34.1c10.2 0 18.5 8.3 18.5 18.5v34.1c0 10.2-8.3 18.5-18.5 18.5z" fill="#CBE4FE" p-id="5704"></path><path d="M718.4 434h-34.1c-17.7 0-32.2-14.4-32.2-32.2v-34.1c0-17.7 14.4-32.2 32.2-32.2h34.1c17.7 0 32.2 14.4 32.2 32.2v34.1c-0.1 17.7-14.5 32.2-32.2 32.2z m-34.1-71.1c-2.7 0-4.9 2.3-4.9 4.9v34.1c0 2.7 2.3 4.9 4.9 4.9h34.1c2.7 0 4.9-2.3 4.9-4.9v-34.1c0-2.7-2.3-4.9-4.9-4.9h-34.1z" fill="#1B81FC" p-id="5705"></path><path d="M845.8 420.3h-34.1c-10.2 0-18.5-8.3-18.5-18.5v-34.1c0-10.2 8.3-18.5 18.5-18.5h34.1c10.2 0 18.5 8.3 18.5 18.5v34.1c0 10.2-8.3 18.5-18.5 18.5z" fill="#CBE4FE" p-id="5706"></path><path d="M845.8 434h-34.1c-17.7 0-32.2-14.4-32.2-32.2v-34.1c0-17.7 14.4-32.2 32.2-32.2h34.1c17.7 0 32.2 14.4 32.2 32.2v34.1c-0.1 17.7-14.5 32.2-32.2 32.2z m-34.1-71.1c-2.7 0-4.9 2.3-4.9 4.9v34.1c0 2.7 2.3 4.9 4.9 4.9h34.1c2.7 0 4.9-2.3 4.9-4.9v-34.1c0-2.7-2.3-4.9-4.9-4.9h-34.1z" fill="#1B81FC" p-id="5707"></path><path d="M409.4 548.8h-34.1c-10.2 0-18.5-8.3-18.5-18.5v-34.1c0-10.2 8.3-18.5 18.5-18.5h34.1c10.2 0 18.5 8.3 18.5 18.5v34.1c0 10.2-8.3 18.5-18.5 18.5z" fill="#CBE4FE" p-id="5708"></path><path d="M409.4 562.4h-34.1c-17.7 0-32.2-14.4-32.2-32.2v-34.1c0-17.7 14.4-32.2 32.2-32.2h34.1c17.7 0 32.2 14.4 32.2 32.2v34.1c0 17.8-14.5 32.2-32.2 32.2z m-34-71.1c-2.7 0-4.9 2.3-4.9 4.9v34.1c0 2.7 2.3 4.9 4.9 4.9h34.1c2.7 0 4.9-2.3 4.9-4.9v-34.1c0-2.7-2.3-4.9-4.9-4.9h-34.1z" fill="#1B81FC" p-id="5709"></path><path d="M530.9 548.8h-34.1c-10.2 0-18.5-8.3-18.5-18.5v-34.1c0-10.2 8.3-18.5 18.5-18.5h34.1c10.2 0 18.5 8.3 18.5 18.5v34.1c0.1 10.2-8.2 18.5-18.5 18.5z" fill="#CBE4FE" p-id="5710"></path><path d="M530.9 562.4h-34.1c-17.7 0-32.2-14.4-32.2-32.2v-34.1c0-17.7 14.4-32.2 32.2-32.2h34.1c17.7 0 32.2 14.4 32.2 32.2v34.1c0 17.8-14.5 32.2-32.2 32.2z m-34-71.1c-2.7 0-4.9 2.3-4.9 4.9v34.1c0 2.7 2.3 4.9 4.9 4.9H531c2.7 0 4.9-2.3 4.9-4.9v-34.1c0-2.7-2.3-4.9-4.9-4.9h-34.1z" fill="#1B81FC" p-id="5711"></path><path d="M652.6 548.8h-34.1c-10.2 0-18.5-8.3-18.5-18.5v-34.1c0-10.2 8.3-18.5 18.5-18.5h34.1c10.2 0 18.5 8.3 18.5 18.5v34.1c0 10.2-8.3 18.5-18.5 18.5z" fill="#CBE4FE" p-id="5712"></path><path d="M652.6 562.4h-34.1c-17.7 0-32.2-14.4-32.2-32.2v-34.1c0-17.7 14.4-32.2 32.2-32.2h34.1c17.7 0 32.2 14.4 32.2 32.2v34.1c-0.1 17.8-14.5 32.2-32.2 32.2z m-34.1-71.1c-2.7 0-4.9 2.3-4.9 4.9v34.1c0 2.7 2.3 4.9 4.9 4.9h34.1c2.7 0 4.9-2.3 4.9-4.9v-34.1c0-2.7-2.3-4.9-4.9-4.9h-34.1z" fill="#1B81FC" p-id="5713"></path><path d="M850.4 548.8h-99.2c-10.2 0-18.5-8.3-18.5-18.5v-34.1c0-10.2 8.3-18.5 18.5-18.5h99.2c10.2 0 18.5 8.3 18.5 18.5v34.1c0 10.2-8.3 18.5-18.5 18.5z" fill="#CBE4FE" p-id="5714"></path><path d="M850.4 562.4h-99.2c-17.7 0-32.2-14.4-32.2-32.2v-34.1c0-17.7 14.4-32.2 32.2-32.2h99.2c17.7 0 32.2 14.4 32.2 32.2v34.1c0 17.8-14.5 32.2-32.2 32.2z m-99.2-71.1c-2.7 0-4.9 2.3-4.9 4.9v34.1c0 2.7 2.3 4.9 4.9 4.9h99.2c2.7 0 4.9-2.3 4.9-4.9v-34.1c0-2.7-2.3-4.9-4.9-4.9h-99.2z" fill="#1B81FC" p-id="5715"></path><path d="M272.9 548.8h-99.2c-10.2 0-18.5-8.3-18.5-18.5v-34.1c0-10.2 8.3-18.5 18.5-18.5h99.2c10.2 0 18.5 8.3 18.5 18.5v34.1c0 10.2-8.3 18.5-18.5 18.5z" fill="#CBE4FE" p-id="5716"></path><path d="M272.9 562.4h-99.2c-17.7 0-32.2-14.4-32.2-32.2v-34.1c0-17.7 14.4-32.2 32.2-32.2h99.2c17.7 0 32.2 14.4 32.2 32.2v34.1c0 17.8-14.5 32.2-32.2 32.2z m-99.2-71.1c-2.7 0-4.9 2.3-4.9 4.9v34.1c0 2.7 2.3 4.9 4.9 4.9h99.2c2.7 0 4.9-2.3 4.9-4.9v-34.1c0-2.7-2.3-4.9-4.9-4.9h-99.2z" fill="#1B81FC" p-id="5717"></path><path d="M203.1 684.2H169c-10.2 0-18.5-8.3-18.5-18.5v-34.1c0-10.2 8.3-18.5 18.5-18.5h34.1c10.2 0 18.5 8.3 18.5 18.5v34.1c0.1 10.2-8.2 18.5-18.5 18.5z" fill="#CBE4FE" p-id="5718"></path><path d="M203.1 697.9H169c-17.7 0-32.2-14.4-32.2-32.2v-34.1c0-17.7 14.4-32.2 32.2-32.2h34.1c17.7 0 32.2 14.4 32.2 32.2v34.1c0 17.7-14.4 32.2-32.2 32.2z m-34-71.2c-2.7 0-4.9 2.3-4.9 4.9v34.1c0 2.7 2.3 4.9 4.9 4.9h34.1c2.7 0 4.9-2.3 4.9-4.9v-34.1c0-2.7-2.3-4.9-4.9-4.9h-34.1z" fill="#1B81FC" p-id="5719"></path><path d="M722.5 684.2H302.3c-10.2 0-18.5-8.3-18.5-18.5v-34.1c0-10.2 8.3-18.5 18.5-18.5h420.3c10.2 0 18.5 8.3 18.5 18.5v34.1c0 10.2-8.4 18.5-18.6 18.5z" fill="#CBE4FE" p-id="5720"></path><path d="M722.5 697.9H302.3c-17.7 0-32.2-14.4-32.2-32.2v-34.1c0-17.7 14.4-32.2 32.2-32.2h420.3c17.7 0 32.2 14.4 32.2 32.2v34.1c0 17.7-14.5 32.2-32.3 32.2z m-420.2-71.2c-2.7 0-4.9 2.3-4.9 4.9v34.1c0 2.7 2.3 4.9 4.9 4.9h420.3c2.7 0 4.9-2.3 4.9-4.9v-34.1c0-2.7-2.3-4.9-4.9-4.9H302.3z" fill="#1B81FC" p-id="5721"></path><path d="M845.8 684.2h-34.1c-10.2 0-18.5-8.3-18.5-18.5v-34.1c0-10.2 8.3-18.5 18.5-18.5h34.1c10.2 0 18.5 8.3 18.5 18.5v34.1c0 10.2-8.3 18.5-18.5 18.5z" fill="#CBE4FE" p-id="5722"></path><path d="M845.8 697.9h-34.1c-17.7 0-32.2-14.4-32.2-32.2v-34.1c0-17.7 14.4-32.2 32.2-32.2h34.1c17.7 0 32.2 14.4 32.2 32.2v34.1c-0.1 17.7-14.5 32.2-32.2 32.2z m-34.1-71.2c-2.7 0-4.9 2.3-4.9 4.9v34.1c0 2.7 2.3 4.9 4.9 4.9h34.1c2.7 0 4.9-2.3 4.9-4.9v-34.1c0-2.7-2.3-4.9-4.9-4.9h-34.1z" fill="#1B81FC" p-id="5723"></path></svg>