<?xml version="1.0" standalone="no"?><!DOCTYPE svg PUBLIC "-//W3C//DTD SVG 1.1//EN" "http://www.w3.org/Graphics/SVG/1.1/DTD/svg11.dtd"><svg t="1579446538805" class="icon" viewBox="0 0 1024 1024" version="1.1" xmlns="http://www.w3.org/2000/svg" p-id="4491" width="48" height="48" xmlns:xlink="http://www.w3.org/1999/xlink"><defs><style type="text/css"></style></defs><path d="M520 656h-44.8c-91.2 0-166.4-73.6-166.4-166.4V177.6C308.8 86.4 382.4 11.2 475.2 11.2h44.8c91.2 0 166.4 73.6 166.4 166.4v312C684.8 580.8 611.2 656 520 656zM475.2 76.8c-56 0-102.4 46.4-102.4 102.4v312c0 56 46.4 102.4 102.4 102.4h44.8c56 0 102.4-46.4 102.4-102.4V177.6c0-56-46.4-102.4-102.4-102.4h-44.8z" fill="#229BFF" p-id="4492"></path><path d="M497.6 811.2C307.2 811.2 153.6 676.8 153.6 512c0-17.6 14.4-32 32-32s32 14.4 32 32c0 129.6 126.4 235.2 280 235.2S777.6 641.6 777.6 512c0-17.6 14.4-32 32-32s32 14.4 32 32c0 164.8-155.2 299.2-344 299.2z" fill="#43484D" p-id="4493"></path><path d="M497.6 1012.8c-17.6 0-32-14.4-32-32V801.6c0-17.6 14.4-32 32-32s32 14.4 32 32v177.6c0 19.2-14.4 33.6-32 33.6z" fill="#43484D" p-id="4494"></path><path d="M720 1012.8H275.2c-17.6 0-32-14.4-32-32s14.4-32 32-32H720c17.6 0 32 14.4 32 32s-14.4 32-32 32z" fill="#43484D" p-id="4495"></path></svg>